<svg xmlns="http://www.w3.org/2000/svg" viewBox="0 0 24 24" fill="#bd1c2b">
  <path d="M3.042 15.783c-.317 0-.573-.256-.573-.573V8.79c0-.317.256-.573.573-.573h1.146c.317 0 .573.256.573.573v6.42c0 .317-.256.573-.573.573H3.042zm3.438 0c-.317 0-.573-.256-.573-.573V8.79c0-.317.256-.573.573-.573h1.146c.317 0 .573.256.573.573v6.42c0 .317-.256.573-.573.573H6.48zm10.053-9.566C14.548 4.832 12.826 4 11 4c-1.826 0-3.548.832-4.533 2.217-.985 1.385-1.274 3.162-.76 4.75l.514 1.543c.257.771 1.027 1.49 1.779 1.49h6c.752 0 1.522-.719 1.779-1.49l.514-1.543c.514-1.588.225-3.365-.76-4.75zm-3.533 7.566h-2v1.434h2v-1.434z"/>
</svg>
